<?xml version="1.0" encoding="UTF-8"?>
<svg width="295px" height="355px" viewBox="0 0 295 355" version="1.1" xmlns="http://www.w3.org/2000/svg" xmlns:xlink="http://www.w3.org/1999/xlink">
    <!-- Generator: Sketch 52.6 (67491) - http://www.bohemiancoding.com/sketch -->
    <title>Image</title>
    <desc>Created with Sketch.</desc>
    <defs>
        <path d="M4,0.504909281 L295,0.504909281 L295,354.504909 L4,354.504909 C1.790861,354.504909 2.705415e-16,352.714048 0,350.504909 L0,4.50490928 C-2.705415e-16,2.29577028 1.790861,0.504909281 4,0.504909281 Z" id="path-1"></path>
        <rect id="path-3" x="0" y="0" width="1025" height="364"></rect>
    </defs>
    <g id="Symbols" stroke="none" stroke-width="1" fill="none" fill-rule="evenodd">
        <g id="Featured-Pets" transform="translate(-748.000000, -274.000000)">
            <g id="::-Featured">
                <g id="dog" transform="translate(748.000000, 274.000000)">
                    <g id="Image">
                        <mask id="mask-2" fill="white">
                            <use xlink:href="#path-1"></use>
                        </mask>
                        <use id="Rectangle-5" fill="#FFFFFF" xlink:href="#path-1"></use>
                        <g id="Group" mask="url(#mask-2)">
                            <g transform="translate(-470.000000, -9.000000)">
                                <mask id="mask-4" fill="white">
                                    <use xlink:href="#path-3"></use>
                                </mask>
                                <use id="Rectangle" stroke="none" fill="#E8E8E8" fill-rule="evenodd" xlink:href="#path-3"></use>
                                <path d="M776.653676,111.003991 C774.703075,100.718053 766.889013,92.4830873 756.829041,89.9271405 L755.103808,70.077766 C754.855126,67.2460255 752.955038,64.8221489 750.266162,63.920964 C747.565628,63.0120102 744.589213,63.7850094 742.68524,65.8903638 L734.342729,75.0847805 L729.233087,57.1853837 C728.374356,54.2060353 725.701022,52.1123342 722.600266,52.0035705 C719.499509,51.90646 716.686292,53.7981715 715.629393,56.7114847 L671.496071,178.425829 C639.746347,186.664679 612.026052,206.976299 594.999092,234.610046 C579.402054,259.917028 574.556637,288.91809 581.360427,316.264391 C585.335456,332.244885 592.881407,342.771657 600.598327,349.678152 L594.528927,349.678152 C594.470642,349.678152 594.412357,349.682036 594.357958,349.682036 C565.639048,350.377347 539.033937,334.058908 526.603712,308.13042 C524.897908,304.564525 520.627568,303.061255 517.060532,304.766515 C513.501268,306.471774 511.997518,310.744633 513.703322,314.306644 C528.251232,344.671138 559.064512,364 592.605525,364 L729.147602,364 C733.095432,364 736.297216,360.803124 736.297216,356.852671 C736.297216,337.605382 720.944975,328.834367 707.39568,325.614184 C713.725419,313.26562 714.273297,302.404789 713.562222,295.296304 L715.427338,295.047701 L758.290049,360.756511 C759.615059,362.780293 761.864856,364 764.281736,364 L790.315655,364 C792.919047,364 795.320384,362.586072 796.575452,360.305919 C797.834406,358.025766 797.752807,355.240638 796.361741,353.038173 C796.089745,352.599234 769.216523,309.944443 754.76187,286.063043 L754.76187,165.933542 C756.895097,166.17826 759.280892,166.294792 761.390805,166.294792 C782.140227,166.294792 801.650124,154.598811 812.160833,133.848251 C812.164719,133.828829 812.436715,133.265589 812.479457,133.164594 C813.956008,129.501588 812.184147,125.329723 808.51997,123.857529 L776.653676,111.003991 Z" id="Fill-1" stroke="none" fill="#CFCFCF" fill-rule="evenodd" mask="url(#mask-4)" transform="translate(663.000000, 208.000000) scale(-1, 1) translate(-663.000000, -208.000000) "></path>
                            </g>
                        </g>
                    </g>
                </g>
            </g>
        </g>
    </g>
</svg>