<?xml version="1.0" encoding="UTF-8"?>
<svg width="295px" height="355px" viewBox="0 0 295 355" version="1.1" xmlns="http://www.w3.org/2000/svg" xmlns:xlink="http://www.w3.org/1999/xlink">
    <!-- Generator: Sketch 52.6 (67491) - http://www.bohemiancoding.com/sketch -->
    <title>Image</title>
    <desc>Created with Sketch.</desc>
    <defs>
        <path d="M4,0.504909281 L295,0.504909281 L295,354.504909 L4,354.504909 C1.790861,354.504909 2.705415e-16,352.714048 0,350.504909 L0,4.50490928 C-2.705415e-16,2.29577028 1.790861,0.504909281 4,0.504909281 Z" id="path-1"></path>
        <rect id="path-3" x="0" y="0" width="1025" height="364"></rect>
    </defs>
    <g id="Symbols" stroke="none" stroke-width="1" fill="none" fill-rule="evenodd">
        <g id="Featured-Pets" transform="translate(-748.000000, -274.000000)">
            <g id="::-Featured">
                <g id="dog" transform="translate(748.000000, 274.000000)">
                    <g id="Image">
                        <mask id="mask-2" fill="white">
                            <use xlink:href="#path-1"></use>
                        </mask>
                        <use id="Rectangle-5" fill="#FFFFFF" xlink:href="#path-1"></use>
                        <g id="Group" mask="url(#mask-2)">
                            <g transform="translate(-470.000000, -9.000000)">
                                <mask id="mask-4" fill="white">
                                    <use xlink:href="#path-3"></use>
                                </mask>
                                <use id="Rectangle" stroke="none" fill="#E8E8E8" fill-rule="evenodd" xlink:href="#path-3"></use>
                                <path d="M724.80078,219.70914 C724.80078,237.122509 731.504794,249.555097 737.982612,261.59263 C744.881623,274.400907 751.40234,286.500409 751.40234,305.56371 C751.40234,336.672291 736.176935,351.792796 704.852535,351.792796 L697.42313,351.792796 C706.088819,343.392085 711.49805,331.714748 711.49805,318.770914 L711.49805,292.352634 C711.49805,258.416704 691.744803,241.18537 677.330587,228.609479 C674.538222,226.173311 671.909656,223.888194 669.655485,221.641807 C666.340527,218.353562 661.898484,214.406893 657.054746,210.111647 C645.077999,199.507154 625.047855,181.7607 625.047855,173.480054 L625.047855,107.43629 C625.047855,88.3962271 610.621939,79.3332193 603.894525,76.1456742 C601.102161,68.0586827 592.124476,48 571.856435,48 C568.174882,48 565.20312,50.9512872 565.20312,54.6036018 C565.20312,64.8324068 560.632378,74.4144074 558.553705,74.4144074 C548.955928,74.4144074 543.211301,82.9700417 538.60156,89.8602514 C536.901182,92.3854998 535.290502,94.7829365 533.89822,96.1656261 C532.260241,97.7923198 529.861772,99.4306328 527.377503,101.169646 C520.174296,106.239508 512,111.991032 512,120.647366 C512,144.703068 540.547635,153.669249 558.553705,153.669249 C562.539454,153.669249 563.760138,153.963603 563.920036,153.963603 C565.21872,155.818808 565.21872,165.493763 565.20312,176.690838 L565.20312,180.083656 C565.20312,183.306059 564.033135,185.385903 561.591766,189.421653 C557.496818,196.19567 551.90039,205.456205 551.90039,226.312742 C551.90039,240.228719 562.09876,261.398976 565.20312,267.522316 L565.20312,325.374516 L558.553705,325.374516 C547.548046,325.374516 538.60156,334.263235 538.60156,345.189194 L538.60156,358.396398 C538.60156,362.04484 541.573322,365 545.250975,365 L704.852535,365 C743.454242,365 764.69727,343.895586 764.69727,305.56371 C764.69727,283.192799 756.737472,268.397632 749.713662,255.360844 C743.481541,243.791953 738.10351,233.807152 738.10351,219.70914 C738.10351,190.633927 757.981556,180.083656 771.350585,180.083656 C775.024338,180.083656 778,177.132369 778,173.480054 C778,169.831613 775.024338,166.876452 771.350585,166.876452 C748.793273,166.876452 724.80078,185.397522 724.80078,219.70914 Z" id="Fill-1" stroke="none" fill="#CFCFCF" fill-rule="evenodd" mask="url(#mask-4)"></path>
                            </g>
                        </g>
                    </g>
                </g>
            </g>
        </g>
    </g>
</svg>