<?xml version="1.0" encoding="UTF-8"?>
<svg width="1023px" height="500px" viewBox="0 0 1023 500" version="1.1" xmlns="http://www.w3.org/2000/svg" xmlns:xlink="http://www.w3.org/1999/xlink">
    <!-- Generator: Sketch 52.6 (67491) - http://www.bohemiancoding.com/sketch -->
    <title>dog-placeholder-lg 2</title>
    <desc>Created with Sketch.</desc>
    <defs>
        <rect id="path-1" x="0" y="0" width="1023" height="500"></rect>
    </defs>
    <g id="Visual-Design" stroke="none" stroke-width="1" fill="none" fill-rule="evenodd">
        <g id="dog-placeholder-lg-2">
            <g id="dog-placeholder-lg">
                <g id="Mask" fill="#D4D4D4">
                    <rect id="path-1" x="0" y="0" width="1023" height="500"></rect>
                </g>
                <g id="Fill-1-Clipped">
                    <mask id="mask-2" fill="white">
                        <use xlink:href="#path-1"></use>
                    </mask>
                    <g id="path-1"></g>
                    <path d="M683.20117,301.834545 C683.20117,327.982064 693.257191,346.650556 702.973918,364.725842 C713.322434,383.95846 723.10351,402.126797 723.10351,430.751817 C723.10351,477.463756 700.265402,500.168362 653.278802,500.168362 L642.134695,500.168362 C655.133228,487.554046 663.247075,470.019622 663.247075,450.583454 L663.247075,410.914365 C663.247075,359.956944 633.617205,334.082764 611.99588,315.199091 C607.807333,311.540997 603.864484,308.109717 600.483227,304.736593 C595.51079,299.799039 588.847726,293.872811 581.582119,287.423167 C563.616998,271.499701 533.571783,244.852029 533.571783,232.417999 L533.571783,133.248183 C533.571783,104.658057 511.932908,91.0492504 501.841788,86.2629051 C497.653242,74.1196624 484.186714,44 453.784653,44 C448.262323,44 443.80468,48.4315858 443.80468,53.9158185 C443.80468,69.2751597 436.948567,83.6632742 433.830558,83.6632742 C419.433892,83.6632742 410.816952,96.5102203 403.90234,106.856403 C401.351773,110.648258 398.935753,114.248195 396.84733,116.32441 C394.390361,118.767016 390.792658,121.22707 387.066255,123.838333 C376.261444,131.451122 364,140.08748 364,153.085635 C364,189.20713 406.821453,202.670544 433.830558,202.670544 C439.809181,202.670544 441.640207,203.11254 441.880054,203.11254 C443.82808,205.898273 443.82808,220.425966 443.80468,237.239239 L443.80468,242.333818 C443.80468,247.172505 442.049703,250.295552 438.387649,256.355542 C432.245227,266.527252 423.850585,280.432661 423.850585,311.750363 C423.850585,332.646278 439.14814,364.435055 443.80468,373.629724 L443.80468,460.499273 L433.830558,460.499273 C417.322069,460.499273 403.90234,473.846372 403.90234,490.252544 L403.90234,510.084181 C403.90234,515.562599 408.359983,520 413.876463,520 L653.278802,520 C711.181363,520 743.045905,488.310091 743.045905,430.751817 C743.045905,397.160165 731.106208,374.944078 720.570493,355.368334 C711.222311,337.99675 703.155265,323.003799 703.155265,301.834545 C703.155265,258.175865 732.972334,242.333818 753.025877,242.333818 C758.536507,242.333818 763,237.902232 763,232.417999 C763,226.939583 758.536507,222.50218 753.025877,222.50218 C719.189909,222.50218 683.20117,250.312998 683.20117,301.834545 Z" id="Fill-1" fill="#9B9B9B" mask="url(#mask-2)"></path>
                </g>
            </g>
        </g>
    </g>
</svg>