<?xml version="1.0" encoding="UTF-8"?>
<svg width="1023px" height="500px" viewBox="0 0 1023 500" version="1.1" xmlns="http://www.w3.org/2000/svg" xmlns:xlink="http://www.w3.org/1999/xlink">
    <!-- Generator: Sketch 52.6 (67491) - http://www.bohemiancoding.com/sketch -->
    <title>Group</title>
    <desc>Created with Sketch.</desc>
    <defs>
        <rect id="path-1" x="0" y="0" width="1023" height="500"></rect>
    </defs>
    <g id="Visual-Design" stroke="none" stroke-width="1" fill="none" fill-rule="evenodd">
        <g id="Dog-Profile" transform="translate(0.000000, -113.000000)">
            <g id="Group-8" transform="translate(0.000000, 113.000000)">
                <g id="Group">
                    <mask id="mask-2" fill="white">
                        <use xlink:href="#path-1"></use>
                    </mask>
                    <use id="Mask" fill="#D4D4D4" xlink:href="#path-1"></use>
                    <path d="M760.845881,139.557678 C757.72492,123.073803 745.222421,109.876743 729.126465,105.780674 L726.366093,73.9707789 C725.968201,69.4327332 722.928061,65.5483155 718.625859,64.104109 C714.305006,62.6474523 709.542741,63.886233 706.496384,67.2601983 L693.148366,81.9948405 L684.972939,53.3099098 C683.598969,48.535313 679.321635,45.1800227 674.360425,45.0057219 C669.399215,44.8500962 664.898067,47.881685 663.207028,52.5504563 L592.593714,247.605495 C541.794155,260.80878 497.441683,293.359453 470.198547,337.644305 C445.243287,378.200365 437.490619,424.676427 448.376682,468.500626 C454.73673,494.110393 466.810251,510.98022 479.157323,522.04832 L469.446283,522.04832 C469.353027,522.04832 469.259771,522.054545 469.172732,522.054545 C423.222477,523.168826 380.654299,497.017481 360.765939,455.465417 C358.036652,449.750841 351.204108,447.341755 345.496852,450.074543 C339.802029,452.80733 337.396028,459.654861 340.125316,465.363212 C363.401971,514.024259 412.703219,545 466.36884,545 L684.836163,545 C691.152692,545 696.275545,539.876802 696.275545,533.545948 C696.275545,502.700932 671.71196,488.644818 650.033088,483.48427 C660.160671,463.694905 661.037276,446.289725 659.899555,434.897923 L662.883741,434.499522 L731.464078,539.802101 C733.584094,543.045341 737.183769,545 741.050777,545 L782.705048,545 C786.870475,545 790.712615,542.73409 792.720724,539.079998 C794.73505,535.425906 794.604492,530.962561 792.378786,527.43297 C791.943592,526.729542 748.946438,458.372505 725.818992,420.101031 L725.818992,227.585804 C729.232155,227.977981 733.049427,228.164731 736.425288,228.164731 C769.624363,228.164731 800.840198,209.421171 817.657333,176.16707 C817.66355,176.135944 818.098744,175.233315 818.167131,175.071465 C820.529612,169.201263 817.694635,162.515582 811.831952,160.156297 L760.845881,139.557678 Z" id="Fill-1" fill="#9B9B9B" mask="url(#mask-2)" transform="translate(579.000000, 295.000000) scale(-1, 1) translate(-579.000000, -295.000000) "></path>
                </g>
            </g>
        </g>
    </g>
</svg>