<?xml version="1.0" encoding="utf-8"?>
<!-- Rotate icon by Arthur Shlain from Usefulicons.com -->
<svg xmlns="http://www.w3.org/2000/svg" xmlns:xlink="http://www.w3.org/1999/xlink" xml:space="preserve" version="1.1" x="0px" y="0px" viewBox="0 0 100 100" width="400px" height="400px"><g style="fill: #362c87"><path d="M93.014,39.378L93.045,38.96C93.045,38.212,86.706,30.583,49.738,30.583C13.685,30.583,6.954,37.501,6.954,39.073L6.954,39.073C6.954,41.117,10.059,42.726,14.24,43.971C19.981,41.135,30.495,38.324,49.626,38.324C69.558,38.324,80.25,41.386,85.943,44.348C89.919,43.119,92.693,41.504,93.014,39.378Z" stroke="none"></path><path d="M5,41.022C5,47.59,35.534,49.897,35.534,49.897L35.534,44.971L48.318,57.598L35.534,68.741L35.534,64.167C35.534,64.167,5.566,60.353,5.566,52.204L5,41.022" stroke="none"></path><path d="M94.967,41.342C94.988,41.198,95,41.053,95,40.905L94.967,41.342Z" stroke="none"></path><path d="M51.994,50.592L51.994,64.738C57.737,64.592,93.326,63.245,94.14,52.244L94.967,41.343C93.722,49.586,57.215,50.503,51.994,50.592Z" stroke="none"></path></g></svg>